<svg width="210" height="180" viewBox="0 0 210 180" fill="none" xmlns="http://www.w3.org/2000/svg">
    <path d="M185.213 119.755L94.4866 134.205C91.5693 134.603 88.9063 132.746 88.3736 129.827L78.9439 70.9498C78.5444 68.0307 80.4086 65.3769 83.3259 64.8462L174.053 50.3953C176.97 49.9973 179.633 51.8549 180.166 54.774L189.595 113.651C190.128 116.57 188.131 119.224 185.213 119.755Z" fill="url(#paint0_linear)"/>
    <path d="M195.975 179.946L125.839 168.282C122.922 167.751 121.058 165.097 121.457 162.178L129.035 117.487C129.567 114.568 132.218 112.71 135.148 113.108L205.284 124.773C208.201 125.303 210.065 127.957 209.666 130.876L202.1 175.568C201.556 178.487 198.892 180.344 195.975 179.946Z" fill="#A7CBF6"/>
    <path d="M8.72309 173.613L1.98063 169.873C0.116463 168.836 -0.54931 166.496 0.491716 164.65L37.5692 98.3066L51.0541 105.785L13.9766 172.129C12.9235 173.975 10.5751 174.638 8.72309 173.613Z" fill="url(#paint1_linear)"/>
    <path d="M97.331 7.16362C69.9254 -8.04715 35.3536 1.75964 20.0893 29.057C4.83701 56.3664 14.6783 90.8289 42.0719 106.028C69.4654 121.238 104.049 111.432 119.314 84.1222C134.566 56.8248 124.725 22.3623 97.331 7.16362ZM49.8311 92.1317C30.1364 81.2031 23.055 56.4268 34.0221 36.7891C45.0013 17.1634 69.8648 10.1189 89.5717 21.0475C109.266 31.9761 116.348 56.7524 105.381 76.3902C94.4016 96.0158 69.538 103.072 49.8311 92.1317Z" fill="#72ACF1"/>
    <defs>
        <linearGradient id="paint0_linear" x1="-25.4528" y1="28.4198" x2="152.682" y2="100.165" gradientUnits="userSpaceOnUse">
            <stop stop-color="#9D9A98"/>
            <stop offset="0.9996" stop-color="#E1DFDD"/>
        </linearGradient>
        <linearGradient id="paint1_linear" x1="67.5388" y1="109.816" x2="-2.9497" y2="153.434" gradientUnits="userSpaceOnUse">
            <stop offset="0.000351356" stop-color="#2970B8"/>
            <stop offset="0.4722" stop-color="#72ACF1"/>
        </linearGradient>
    </defs>
</svg>