<svg width="197" height="197" viewBox="0 0 197 197" fill="none" xmlns="http://www.w3.org/2000/svg">
<g clip-path="url(#clip0)">
<path fill-rule="evenodd" clip-rule="evenodd" d="M135.098 148.791L43.0438 173.613C40.9354 174.184 38.7832 172.933 38.2121 170.837L0.129867 29.781C-0.441148 27.674 0.810692 25.5232 2.90807 24.9525L94.9622 0.130019C97.0706 -0.440614 99.2338 0.810389 99.7939 2.90637L137.876 143.951C138.447 146.058 137.206 148.22 135.098 148.791Z" fill="url(#paint0_radial)"/>
<path fill-rule="evenodd" clip-rule="evenodd" d="M77.7237 73.3151L54.6526 79.5372C46.2411 81.8087 37.577 76.8267 35.304 68.4208L30.6809 51.3128C28.4079 42.9069 33.3933 34.2487 41.8047 31.9771L64.8759 25.755C73.2874 23.4835 81.9515 28.4655 84.2245 36.8714L88.8476 53.9794C91.1206 62.3962 86.1462 71.0435 77.7237 73.3151Z" fill="white"/>
<path fill-rule="evenodd" clip-rule="evenodd" d="M72.9357 57.074C71.7058 57.4032 70.432 56.679 70.1026 55.4499L64.8866 36.1252C64.5571 34.8961 65.2819 33.6232 66.5118 33.294C67.7416 32.9648 69.0154 33.689 69.3449 34.9181L74.5609 54.2428C74.8903 55.4718 74.1655 56.7338 72.9357 57.074Z" fill="#B3AFAB"/>
<path fill-rule="evenodd" clip-rule="evenodd" d="M95.7872 140.211L72.716 146.433C64.3046 148.704 55.6405 143.722 53.3674 135.317L48.7444 118.209C46.4713 109.803 51.4567 101.144 59.8682 98.8729L82.9394 92.6508C91.3619 90.3792 100.015 95.3613 102.288 103.767L106.911 120.886C109.184 129.292 104.199 137.939 95.7872 140.211Z" fill="white"/>
<path fill-rule="evenodd" clip-rule="evenodd" d="M50.6224 63.0879C49.3926 63.4171 48.1188 62.6929 47.7893 61.4638L42.5624 42.1391C42.2329 40.9101 42.9577 39.6371 44.1876 39.3079C45.4174 38.9787 46.6912 39.703 47.0207 40.932L52.2367 60.2567C52.5771 61.4858 51.8523 62.7587 50.6224 63.0879Z" fill="#B3AFAB"/>
<path fill-rule="evenodd" clip-rule="evenodd" d="M65.4137 64.679C65.7431 65.908 65.0183 67.181 63.7885 67.5102C62.5586 67.8394 61.2848 67.1151 60.9554 65.8861C60.6259 64.657 61.3507 63.3841 62.5915 63.0548C63.8104 62.7147 65.0733 63.4499 65.4137 64.679Z" fill="#B3AFAB"/>
<path fill-rule="evenodd" clip-rule="evenodd" d="M68.6749 129.984C67.4451 130.313 66.1713 129.589 65.8418 128.36L60.6258 109.035C60.2964 107.806 61.0211 106.533 62.251 106.204C63.4809 105.874 64.7547 106.599 65.0841 107.828L70.3001 127.152C70.6406 128.382 69.9158 129.644 68.6749 129.984Z" fill="#B3AFAB"/>
<path fill-rule="evenodd" clip-rule="evenodd" d="M90.9884 123.959C89.7585 124.288 88.4847 123.564 88.1553 122.335L82.9393 103.01C82.6099 101.781 83.3346 100.508 84.5645 100.179C85.7944 99.8497 87.0682 100.574 87.3976 101.814L92.6136 121.139C92.954 122.368 92.2293 123.63 90.9884 123.959Z" fill="#B3AFAB"/>
<path fill-rule="evenodd" clip-rule="evenodd" d="M83.4665 131.575C83.7959 132.804 83.0712 134.077 81.8413 134.406C80.6114 134.735 79.3376 134.011 79.0082 132.782C78.6787 131.553 79.4035 130.28 80.6334 129.951C81.8742 129.61 83.137 130.346 83.4665 131.575Z" fill="#B3AFAB"/>
<path fill-rule="evenodd" clip-rule="evenodd" d="M136.966 56.1305L152.801 41.5794C153.097 41.338 153.536 41.4916 153.613 41.8647L155.48 48.9427C155.546 49.272 155.908 49.4475 156.205 49.2939L167.911 43.1815C168.427 42.9072 168.91 43.5986 168.471 43.9936L151.823 59.0056C151.527 59.269 151.066 59.1044 151 58.7203L149.77 51.0607C149.715 50.7205 149.342 50.5449 149.045 50.6985L137.537 56.9316C136.999 57.2279 136.516 56.5146 136.966 56.1305Z" fill="#FFD590"/>
<path fill-rule="evenodd" clip-rule="evenodd" d="M126.853 43.7301L128.654 13.5744C128.709 13.0367 129.323 12.7623 129.752 13.0806L138.548 18.4138C138.932 18.6881 139.47 18.5125 139.613 18.0626L145.477 0.47176C145.74 -0.307373 146.893 -0.0769254 146.838 0.746103L144.675 32.1638C144.642 32.7125 144.005 33.0088 143.555 32.6796L134.836 26.1393C134.452 25.8539 133.892 26.0295 133.749 26.4904L128.214 44.0154C127.962 44.8165 126.765 44.5641 126.853 43.7301Z" fill="#FFD590"/>
<path d="M140.15 164.013C138.921 168.293 134.956 177.609 128.423 178.334C123.042 178.926 120.297 176.49 116.475 173.11C111.775 168.929 105.923 163.728 95.0184 166.241C79.6449 169.785 75.1097 184.644 74.8572 192.007C74.7693 194.674 76.8557 196.912 79.5241 197C79.579 197 79.6339 197 79.6888 197C82.2804 197 84.4326 194.937 84.5205 192.325C84.5205 192.183 85.1354 178.432 97.1816 175.656C103.21 174.273 105.923 176.677 110.04 180.331C114.4 184.205 119.814 189.022 129.477 187.936C142.555 186.476 148.002 171.508 149.407 166.745L146.245 162.608L140.15 164.013Z" fill="url(#paint1_linear)"/>
<path fill-rule="evenodd" clip-rule="evenodd" d="M190.916 79.4826C188.391 78.6047 185.634 79.9325 184.756 82.4455L175.169 109.825L175.697 118.088L184.306 113.018L193.892 85.6389C194.771 83.1259 193.442 80.3715 190.916 79.4826Z" fill="#E1DFDD"/>
<path fill-rule="evenodd" clip-rule="evenodd" d="M158.961 68.3112C156.436 67.4333 153.679 68.7612 152.801 71.2741L143.214 98.6535V110.779L152.34 101.847L161.926 74.4675C162.816 71.9545 161.476 69.1891 158.961 68.3112Z" fill="#E1DFDD"/>
<path d="M194.551 116.607L132.958 95.0763C131.059 94.4069 128.972 95.4165 128.302 97.3149L120.726 118.966C114.444 136.897 123.097 156.408 140.14 164.024L149.408 166.768C166.374 169.412 183.339 159.689 189.214 142.922L196.791 121.271C197.461 119.361 196.462 117.276 194.551 116.607Z" fill="#72ACF1"/>
</g>
<defs>
<radialGradient id="paint0_radial" cx="0" cy="0" r="1" gradientUnits="userSpaceOnUse" gradientTransform="translate(163.36 134.41) scale(78.4842 78.4317)">
<stop stop-color="#797673"/>
<stop offset="0.1119" stop-color="#8B8885"/>
<stop offset="0.3762" stop-color="#B0AEAB"/>
<stop offset="0.6208" stop-color="#CBC9C7"/>
<stop offset="0.8363" stop-color="#DBD9D7"/>
<stop offset="0.9996" stop-color="#E1DFDD"/>
</radialGradient>
<linearGradient id="paint1_linear" x1="134.115" y1="152.191" x2="119.448" y2="168.964" gradientUnits="userSpaceOnUse">
<stop offset="0.000351356" stop-color="#2970B8"/>
<stop offset="0.8409" stop-color="#72ACF1"/>
</linearGradient>
<clipPath id="clip0">
<rect width="197" height="197" fill="white"/>
</clipPath>
</defs>
</svg>
